<?xml version="1.0" standalone="no"?>
<!DOCTYPE svg PUBLIC "-//W3C//DTD SVG 20010904//EN"
 "http://www.w3.org/TR/2001/REC-SVG-20010904/DTD/svg10.dtd">
<svg version="1.0" xmlns="http://www.w3.org/2000/svg"
 width="73.000000pt" height="107.000000pt" viewBox="0 0 73.000000 107.000000"
 preserveAspectRatio="xMidYMid meet">

<g transform="translate(0.000000,107.000000) scale(0.100000,-0.100000)"
fill="#000000" stroke="none">
<path d="M0 820 l0 -250 70 0 c64 0 76 -3 122 -35 47 -31 54 -33 73 -21 32 21
24 41 -30 78 -45 31 -50 39 -53 77 -3 39 -7 44 -67 84 -36 23 -65 48 -65 55 0
19 8 15 82 -35 65 -45 68 -48 68 -87 0 -38 4 -43 51 -74 45 -30 53 -32 66 -19
13 13 10 17 -21 36 -35 22 -36 24 -36 89 0 42 5 71 14 81 13 14 9 19 -30 46
l-44 30 0 83 c0 48 4 82 10 82 6 0 10 -31 10 -74 l0 -74 47 -30 c39 -25 50
-28 70 -19 16 7 30 7 46 0 20 -9 31 -6 70 19 l47 30 0 74 c0 43 4 74 10 74 6
0 10 -34 10 -83 l0 -83 -45 -29 c-41 -26 -44 -30 -30 -45 10 -11 15 -38 15
-82 0 -65 -1 -67 -35 -88 -29 -18 -33 -25 -24 -36 10 -12 16 -12 43 4 76 45
76 45 76 88 0 39 3 42 68 87 74 50 82 54 82 35 0 -7 -29 -32 -65 -55 -60 -40
-64 -45 -67 -84 -3 -38 -8 -46 -53 -77 -54 -37 -62 -57 -30 -78 19 -12 26 -10
73 21 46 32 58 35 122 35 40 0 70 -4 70 -10 0 -6 -27 -10 -61 -10 -54 0 -66
-4 -121 -41 -51 -35 -64 -40 -79 -30 -27 16 -29 14 -29 -19 0 -29 1 -30 23
-16 21 14 26 13 85 -26 59 -39 62 -42 62 -82 0 -36 5 -44 35 -64 33 -21 46
-42 26 -42 -4 0 -23 10 -42 23 -27 18 -35 31 -39 64 -4 37 -11 47 -54 77 l-49
35 -44 -30 c-24 -17 -41 -34 -38 -39 3 -4 25 -21 50 -37 l45 -28 0 -87 0 -87
-59 -41 c-33 -22 -65 -40 -71 -40 -6 0 -38 18 -71 40 l-59 41 0 88 0 89 44 26
c25 15 48 30 51 35 3 6 -14 23 -38 40 l-44 30 -49 -35 c-43 -30 -50 -40 -54
-77 -4 -33 -12 -46 -39 -64 -19 -13 -38 -23 -42 -23 -20 0 -7 21 26 42 30 20
35 28 35 64 0 40 3 43 62 82 59 39 64 40 85 26 22 -14 23 -13 23 16 0 33 -2
35 -29 19 -15 -10 -28 -5 -79 30 -55 37 -67 41 -121 41 l-61 0 0 -275 0 -275
365 0 365 0 0 535 0 535 -365 0 -365 0 0 -250z"/>
</g>
</svg>
